HIERARCHY
ROOT hip
{
  OFFSET 0 0 0
  CHANNELS 6 Xposition Yposition Zposition Zrotation Yrotation Xrotation
  JOINT abdomen
  {
    OFFSET 0 20.6881 -0.73152
    CHANNELS 3 Zrotation Xrotation Yrotation
    JOINT chest
    {
      OFFSET 0 11.7043 -0.48768
      CHANNELS 3 Zrotation Xrotation Yrotation
      JOINT neck
      {
        OFFSET 0 22.1894 -2.19456
        CHANNELS 3 Zrotation Xrotation Yrotation
        JOINT head
        {
          OFFSET -0.24384 7.07133 1.2192
          CHANNELS 3 Zrotation Xrotation Yrotation
          JOINT leftEye
          {
            OFFSET 4.14528 8.04674 8.04672
            CHANNELS 3 Zrotation Xrotation Yrotation
            End Site
            {
              OFFSET 1 0 0
            }
          }
          JOINT rightEye
          {
            OFFSET -3.6576 8.04674 8.04672
            CHANNELS 3 Zrotation Xrotation Yrotation
            End Site
            {
              OFFSET 1 0 0
            }
          }
        }
      }
      JOINT rCollar
      {
        OFFSET -2.68224 19.2634 -4.8768
        CHANNELS 3 Zrotation Xrotation Yrotation
        JOINT rShldr
        {
          OFFSET -8.77824 -1.95073 1.46304
          CHANNELS 3 Zrotation Xrotation Yrotation
          JOINT rForeArm
          {
            OFFSET -28.1742 -1.7115 0.48768
            CHANNELS 3 Zrotation Xrotation Yrotation
            JOINT rHand
            {
              OFFSET -22.5879 0.773209 7.07136
              CHANNELS 3 Zrotation Xrotation Yrotation
              JOINT rThumb1
              {
                OFFSET -1.2192 -0.487915 3.41376
                CHANNELS 3 Zrotation Xrotation Yrotation
                JOINT rThumb2
                {
                  OFFSET -3.37035 -0.52449 3.41376
                  CHANNELS 3 Zrotation Xrotation Yrotation
                  End Site
                  {
                    OFFSET -1.78271 -1.18214 1.43049
                  }
                }
              }
              JOINT rIndex1
              {
                OFFSET -7.75947 0.938293 5.60832
                CHANNELS 3 Zrotation Xrotation Yrotation
                JOINT rIndex2
                {
                  OFFSET -2.54057 -0.884171 1.56538
                  CHANNELS 3 Zrotation Xrotation Yrotation
                  End Site
                  {
                    OFFSET -1.62519 -0.234802 1.16502
                  }
                }
              }
              JOINT rMid1
              {
                OFFSET -8.24714 1.18213 3.41376
                CHANNELS 3 Zrotation Xrotation Yrotation
                JOINT rMid2
                {
                  OFFSET -3.10165 -0.590103 1.0647
                  CHANNELS 3 Zrotation Xrotation Yrotation
                  End Site
                  {
                    OFFSET -2.48547 -0.328903 0.83742
                  }
                }
              }
              JOINT rRing1
              {
                OFFSET -8.82822 0.546677 1.51678
                CHANNELS 3 Zrotation Xrotation Yrotation
                JOINT rRing2
                {
                  OFFSET -2.60934 -0.819778 -0.0198488
                  CHANNELS 3 Zrotation Xrotation Yrotation
                  End Site
                  {
                    OFFSET -2.33842 -0.294052 0.168128
                  }
                }
              }
              JOINT rPinky1
              {
                OFFSET -8.27202 -0.0477905 -0.4584
                CHANNELS 3 Zrotation Xrotation Yrotation
                JOINT rPinky2
                {
                  OFFSET -1.82734 -0.647385 -0.700984
                  CHANNELS 3 Zrotation Xrotation Yrotation
                  End Site
                  {
                    OFFSET -1.69225 -0.51767 -0.607171
                  }
                }
              }
            }
          }
        }
      }
      JOINT lCollar
      {
        OFFSET 2.68224 19.2634 -4.8768
        CHANNELS 3 Zrotation Xrotation Yrotation
        JOINT lShldr
        {
          OFFSET 8.77824 -1.95073 1.46304
          CHANNELS 3 Zrotation Xrotation Yrotation
          JOINT lForeArm
          {
            OFFSET 28.1742 -1.7115 0.48768
            CHANNELS 3 Zrotation Xrotation Yrotation
            JOINT lHand
            {
              OFFSET 22.5879 0.773209 7.07136
              CHANNELS 3 Zrotation Xrotation Yrotation
              JOINT lThumb1
              {
                OFFSET 1.2192 -0.487915 3.41376
                CHANNELS 3 Zrotation Xrotation Yrotation
                JOINT lThumb2
                {
                  OFFSET 3.37035 -0.52449 3.41376
                  CHANNELS 3 Zrotation Xrotation Yrotation
                  End Site
                  {
                    OFFSET 1.78271 -1.18214 1.43049
                  }
                }
              }
              JOINT lIndex1
              {
                OFFSET 7.75947 0.938293 5.60832
                CHANNELS 3 Zrotation Xrotation Yrotation
                JOINT lIndex2
                {
                  OFFSET 2.54057 -0.884171 1.56538
                  CHANNELS 3 Zrotation Xrotation Yrotation
                  End Site
                  {
                    OFFSET 1.62519 -0.234802 1.16502
                  }
                }
              }
              JOINT lMid1
              {
                OFFSET 8.24714 1.18213 3.41376
                CHANNELS 3 Zrotation Xrotation Yrotation
                JOINT lMid2
                {
                  OFFSET 3.10165 -0.590103 1.0647
                  CHANNELS 3 Zrotation Xrotation Yrotation
                  End Site
                  {
                    OFFSET 2.48547 -0.328903 0.83742
                  }
                }
              }
              JOINT lRing1
              {
                OFFSET 8.82822 0.546677 1.51678
                CHANNELS 3 Zrotation Xrotation Yrotation
                JOINT lRing2
                {
                  OFFSET 2.60934 -0.819778 -0.0198488
                  CHANNELS 3 Zrotation Xrotation Yrotation
                  End Site
                  {
                    OFFSET 2.33842 -0.294052 0.168128
                  }
                }
              }
              JOINT lPinky1
              {
                OFFSET 8.27202 -0.0477905 -0.4584
                CHANNELS 3 Zrotation Xrotation Yrotation
                JOINT lPinky2
                {
                  OFFSET 1.82734 -0.647385 -0.700984
                  CHANNELS 3 Zrotation Xrotation Yrotation
                  End Site
                  {
                    OFFSET 1.69225 -0.51767 -0.607171
                  }
                }
              }
            }
          }
        }
      }
    }
  }
  JOINT rButtock
  {
    OFFSET -8.77824 4.35084 1.2192
    CHANNELS 3 Zrotation Xrotation Yrotation
    JOINT rThigh
    {
      OFFSET 0 -1.70687 -2.19456
      CHANNELS 3 Zrotation Xrotation Yrotation
      JOINT rShin
      {
        OFFSET 0 -36.8199 0.73152
        CHANNELS 3 Zrotation Xrotation Yrotation
        JOINT rFoot
        {
          OFFSET 0.73152 -45.1104 -5.12064
          CHANNELS 3 Zrotation Xrotation Yrotation
          End Site
          {
            OFFSET -1.1221 -3.69964 12.103
          }
        }
      }
    }
  }
  JOINT lButtock
  {
    OFFSET 8.77824 4.35084 1.2192
    CHANNELS 3 Zrotation Xrotation Yrotation
    JOINT lThigh
    {
      OFFSET 0 -1.70687 -2.19456
      CHANNELS 3 Zrotation Xrotation Yrotation
      JOINT lShin
      {
        OFFSET 0 -36.8199 0.73152
        CHANNELS 3 Zrotation Xrotation Yrotation
        JOINT lFoot
        {
          OFFSET -0.73152 -45.1104 -5.12064
          CHANNELS 3 Zrotation Xrotation Yrotation
          End Site
          {
            OFFSET 1.1221 -3.69964 12.103
          }
        }
      }
    }
  }
}
MOTION
Frames:	8
Frame Time:	0.03333
0.0 0.0 0.0 0.0 0.0 0.0 0.0 0.0 0.0 0.0 0.0 0.0 0.0 0.0 0.0 0.0 0.0 0.0 0.0 0.0 0.0 0.0 0.0 0.0 0.0 0.0 0.0 0.0 0.0 0.0 0.0 0.0 0.0 0.0 0.0 0.0 0.0 0.0 0.0 0.0 0.0 0.0 0.0 0.0 0.0 0.0 0.0 0.0 0.0 0.0 0.0 0.0 0.0 0.0 0.0 0.0 0.0 0.0 0.0 0.0 0.0 0.0 0.0 0.0 0.0 0.0 0.0 0.0 0.0 0.0 0.0 0.0 0.0 0.0 0.0 0.0 0.0 0.0 0.0 0.0 0.0 0.0 0.0 0.0 0.0 0.0 0.0 0.0 0.0 0.0 0.0 0.0 0.0 0.0 0.0 0.0 0.0 0.0 0.0 0.0 0.0 0.0 0.0 0.0 0.0 0.0 0.0 0.0 0.0 0.0 0.0 0.0 0.0 0.0 0.0 0.0 0.0 0.0 0.0 0.0 0.0 0.0 0.0 0.0 0.0 0.0 0.0 0.0 0.0 0.0 0.0 0.0
-2.8392 66.9245 -0.0535 178.66182 -0.662212 -177.068327 8.894058 0.097164 90.62087 -8.779863 -5.585155 -79.784792 7.523294 12.399767 115.628293 -5.854714 19.276615 -129.269027 -0.004446 -0.0 0.004673 0.001155 0.0 0.003896 -85.537508 68.183241 88.688977 49.003237 -45.567032 58.714355 -125.421465 -64.723244 -41.20943 -73.20909 -80.854645 -79.07302 -174.051974 -11.71868 89.878323 169.613088 -26.280694 99.09329 -138.493521 4.896529 114.865085 -169.800617 -27.342683 118.222118 -82.840454 61.109792 74.532461 173.197215 -58.958124 136.806605 -145.123109 2.015488 -179.760928 11.900728 35.309417 -4.995442 0.099151 0.258687 0.088519 -81.330189 -54.438269 -80.909586 158.417159 -29.366574 -166.79318 128.746376 23.323271 -154.765583 -66.104507 -54.088949 -74.250121 31.590782 55.330387 -15.055154 173.770967 -11.439823 -89.891392 126.425886 13.798993 -61.335613 151.352605 -17.158723 -121.132767 12.823102 36.991628 -3.623772 -173.124011 -66.297864 -137.614396 -2.487674 1.609616 -0.475929 114.66831 66.73094 -135.091343 159.672603 25.37451 -174.260823 -4.469311 12.955217 -4.044214 43.230277 -50.911208 43.204399 -0.005225 0.000411 -0.002612 -30.70804 -35.156103 -80.410745 -71.519418 35.987991 -93.824661 116.555794 -17.144298 -171.585415 -0.001866 0.000411 -0.0 0.304076 -37.313619 180.0 25.639412 -56.113177 -108.702913 167.432331 -20.410803 18.127195
-4.2348 66.8337 0.1331 179.031847 -2.300757 -176.938534 9.258397 -0.063631 89.609657 -8.630713 -5.828426 -78.642278 5.65692 3.534074 62.468824 -10.249171 9.352218 -75.131822 -0.001969 -0.0 0.001394 -0.001969 -0.0 0.001394 -157.796944 -22.115223 165.468193 -5.413127 46.039059 -14.508664 -123.806664 -40.020713 95.726429 -147.306765 15.739606 142.409614 175.879982 -21.25742 88.493982 172.321593 -26.329986 104.852047 -1.397553 2.231747 0.80633 -178.04601 -34.280206 106.357384 -0.058585 0.167796 0.031267 10.87321 -23.466694 -1.573603 -0.021061 -1.725175 -0.542349 10.473068 -0.053028 -0.078518 7.929993 24.811472 7.001046 -85.543743 -53.832008 -84.591077 -4.239199 -44.742778 8.647625 -178.551595 6.596896 -151.5381 81.479849 -49.499932 99.83708 -42.664688 -68.115042 -28.237541 -71.831426 -48.263673 -25.791426 14.18495 -32.132889 27.16581 19.124818 24.072716 -13.346101 -69.667271 -57.120827 -24.261217 -173.124108 -66.297879 -137.614418 159.788871 5.898125 -141.611756 0.014106 -1.323222 0.415436 52.653734 -86.666519 74.260662 151.490233 34.557236 147.064541 162.676233 55.778809 146.822477 0.000358 -0.000221 0.000179 -31.732734 -33.728202 -19.504673 45.651377 77.438257 157.708705 -118.515937 59.933998 -142.443631 -179.99946 75.748172 -0.000276 178.435144 40.358183 -13.393284 -56.97855 46.584006 -101.773434 43.82996 27.808014 163.94961
-5.5765 67.3611 0.348 179.833742 -4.03642 -176.686262 10.03491 -0.420842 87.623144 -8.31465 -6.155598 -76.287896 7.769095 9.611829 99.828203 -7.951684 16.382418 -113.175322 -0.003401 -0.0 0.002641 0.002198 0.0 0.001889 4.228202 -44.239864 -8.545292 -132.570828 -16.042445 -176.470839 -160.279998 41.092617 -108.766598 -45.278707 -76.566399 -47.696999 -93.744006 37.964073 53.548349 -142.631956 -24.699332 78.837763 88.791843 -75.499632 40.050183 -162.756067 -26.052791 115.060069 0.047299 -0.138694 -0.026092 -42.067426 58.5595 36.100416 -145.118181 0.226808 -179.199104 12.11761 44.800441 -3.849619 -1.149818 -2.914285 -1.066057 -146.185174 8.157357 -142.826038 33.836834 -85.665793 55.254066 -51.485393 -46.51436 -50.687067 -153.95683 78.58508 125.585222 10.448724 20.41991 -0.24468 -71.831022 -48.264135 -25.791412 156.557683 -31.054813 -129.247729 -19.568127 -35.040428 5.986469 148.121584 0.871803 -110.724641 158.521346 -0.192021 -142.145871 170.25617 -25.745788 -143.889798 145.12041 0.226006 179.200718 -11.194812 13.761151 7.373883 -12.253564 41.424742 -10.280212 9.490457 -23.75694 10.322684 -0.000249 -0.002143 0.00032 -30.959799 -34.914883 180.0 -83.114671 -50.787216 -149.457141 -50.346141 -10.243249 -140.745091 179.996551 75.748922 0.00236 176.184471 40.550154 2.425014 -38.073376 49.759893 -45.72124 21.094344 70.619728 75.045141
-6.9064 67.428 0.5763 179.810733 -5.596053 -176.397273 9.697732 -0.80615 87.940785 -8.187007 -6.601799 -76.20326 -12.377143 9.905916 -81.434269 11.3296 3.999638 67.977963 -0.001953 0.0 -0.000926 -0.001953 0.0 -0.000926 4.224524 -44.072771 -8.511463 40.309588 11.808143 -2.157752 40.605322 -26.316013 101.834326 -22.150495 -39.116246 -6.698553 -176.927357 -14.532602 89.658627 -50.857473 -11.126599 7.696809 -90.224556 41.072526 75.797211 124.913266 -65.119086 72.616742 -167.298578 -27.767816 145.2584 -170.537938 -26.267426 143.886664 -145.122733 1.975018 -179.747674 11.798763 52.762158 -2.716031 -145.691912 13.732469 -142.281936 -24.209557 -39.108622 -25.5921 85.537175 68.182141 -88.688954 -41.031806 63.019002 32.673135 178.294675 19.570507 154.733988 8.182828 14.499461 0.554473 121.363636 30.329276 -71.958358 0.822988 -28.140479 -25.073441 -45.281946 -63.865666 -4.305354 7.248055 31.687248 -7.000233 160.673404 -6.66795 -143.244647 -167.277047 -63.975907 -132.401169 71.924436 72.975146 -89.771242 159.841695 0.084333 -176.234784 -0.097553 0.258578 -0.090917 9.590263 -25.348512 10.911725 -0.0 0.00015 0.001001 -29.376791 -32.03472 -46.702823 -87.722681 71.487387 -1.106727 90.036102 51.896674 5.217513 0.004505 0.00015 0.004505 -6.267714 -37.027411 151.301569 48.431867 -44.860415 -29.85467 176.784873 -63.810612 78.808484
-8.2122 67.77 0.7807999999999999 179.879407 -7.14667 -176.233973 11.888823 1.309236 0.226866 4.271388 -10.496485 13.251427 -9.16844 16.494257 -125.771974 12.460717 12.336607 111.107744 0.003993 0.0 0.004243 0.003365 -0.0 -0.00143 -142.974483 39.432091 147.391044 -36.767736 34.54566 21.804387 -0.11854 -77.494775 -114.734719 -120.007728 40.732605 111.735492 6.463045 -6.452931 -0.635264 -7.591973 7.520729 2.29249 -162.637497 -37.465128 122.649833 -168.088226 -32.485907 117.986919 -160.826137 -7.141785 143.316473 -42.498871 58.273309 36.597214 -145.119318 0.185603 -179.186321 12.054085 35.302687 -5.002344 32.003346 83.321115 6.243624 -21.568125 -37.169268 -21.761705 -0.058079 -0.353027 0.076877 -8.27762 -78.795447 -22.204585 -104.657613 -51.370083 -59.2518 164.259778 40.154187 -136.44889 -1.590957 -1.575541 0.222994 138.655938 -42.455208 -120.126 -68.798033 -72.673447 -22.61797 10.287589 35.421191 -8.464965 -37.464976 -72.535993 -11.716377 156.117668 15.598187 -139.741439 145.119726 0.23945 179.20566 156.273537 63.710238 -172.345301 146.206053 15.404688 142.733233 -1.754464 -1.212035 2.367295 179.995783 75.748369 0.00347 150.386164 35.994832 -135.957083 -96.29663 -50.305924 6.046369 59.164793 42.126398 32.49208 -0.008643 0.00142 -0.004322 -7.394926 -36.105115 -180.0 30.419358 -50.960737 138.741409 164.867917 16.848235 -89.913844
-9.408999999999999 68.3774 0.9329000000000001 179.949336 -8.819781 -176.066598 9.54205 -1.423513 92.328837 -8.000278 -6.264614 -79.522316 -12.277423 10.794537 -88.495033 11.955464 6.313536 74.837237 0.001577 -0.0 -0.000339 0.001577 -0.0 -0.000339 -151.261612 17.590063 156.536065 -24.275971 13.482601 2.176137 179.097179 71.004958 -102.351173 -27.243034 -65.249144 -24.407609 -103.199575 36.331097 60.111349 -152.718007 -26.358538 77.75555 -19.171476 24.113949 13.381763 151.621881 -54.292441 90.247589 -89.835578 60.701595 81.262555 7.477542 -12.273984 -1.020161 -70.380149 -72.129497 -87.280399 14.731332 0.860808 -4.414636 0.55233 1.455221 0.509685 19.659537 59.127715 9.59633 82.106389 68.324901 -85.221462 -44.964684 65.826152 36.431545 71.1351 -53.083126 109.773974 -126.384844 -70.505227 -107.2801 18.019374 16.250204 -5.266744 -1.834453 -0.746584 -9.200806 100.824122 37.734239 -85.162275 162.024186 -6.472908 -115.37166 -0.541885 -1.589835 0.294723 -166.985975 -64.918411 -132.416875 145.119365 0.185696 179.185982 -9.535034 -7.226559 9.952201 86.001059 -50.497622 84.370833 145.459912 8.723698 141.930644 0.006673 0.000196 0.003336 -25.771946 -30.67395 -180.0 -96.283885 -45.959671 176.083611 -26.125036 72.466804 -61.351333 -179.980191 75.749445 -0.013553 170.070889 42.059566 6.541449 -15.825673 52.438118 94.181301 -58.806416 33.962934 -32.897972
-10.5658 69.102 1.2321 -179.934757 -10.611528 -175.678695 9.917993 -1.582577 81.024327 -6.787128 -7.72506 -67.846884 7.524152 11.436198 115.389 -5.74885 16.853416 -129.159543 0.002546 -0.0 -0.002936 0.002546 -0.0 -0.002936 0.035004 -0.209457 -0.046107 -116.802647 28.705017 146.433575 120.344497 18.213362 -77.51911 -25.222043 -14.515084 3.660735 11.111006 -11.091737 -0.63969 11.875845 -28.938592 -18.360841 -138.492315 4.896185 114.865162 -161.308422 -10.68086 118.833921 -10.97606 25.789802 7.640322 3.256285 0.207945 0.02093 -145.109967 -0.952243 -178.827551 12.001497 29.598299 -5.642439 -125.808694 -27.876302 -123.549761 -23.33298 -39.385354 -25.369653 155.417085 -2.951403 -161.718682 137.964957 -3.60164 -170.434879 -166.800916 24.315467 -126.995592 177.907884 6.498402 -143.196288 3.031021 2.963866 -0.541631 -11.554225 -14.991283 6.670477 90.225892 41.071711 -75.796335 -13.491893 -12.835906 6.140805 172.972844 -43.923926 -144.946261 129.079065 51.888766 -118.094594 77.741607 72.9049 -95.869705 -5.257369 26.575996 1.072223 -11.370102 37.937399 -9.668941 127.815906 -30.933125 125.445881 -0.0 -0.000614 -0.000229 -21.662238 -28.851243 -139.1848 -97.23558 -16.68711 -35.720058 179.619123 33.656114 -115.696571 -0.0 -0.000614 -0.000229 -8.607915 -32.383191 -54.3623 -54.471366 21.998765 -164.534348 155.20242 87.525359 104.479495
